<?xml version="1.0" encoding="UTF-8"?>
<!DOCTYPE svg PUBLIC "-//W3C//DTD SVG 1.1//EN" "http://www.w3.org/Graphics/SVG/1.1/DTD/svg11.dtd">
<!-- Creator: CorelDRAW X7 -->
<svg xmlns="http://www.w3.org/2000/svg" xml:space="preserve" width="212.487mm" height="212.487mm" version="1.1" style="shape-rendering:geometricPrecision; text-rendering:geometricPrecision; image-rendering:optimizeQuality; fill-rule:evenodd; clip-rule:evenodd"
viewBox="0 0 21249 21249"
 xmlns:xlink="http://www.w3.org/1999/xlink">
 <defs>
  <style type="text/css">
   <![CDATA[
    .fil1 {fill:none}
    .fil0 {fill:#1D1819}
   ]]>
  </style>
 </defs>
 <g id="Layer_x0020_1">
  <metadata id="CorelCorpID_0Corel-Layer"/>
  <path class="fil0" d="M9668 12969c0,-14 7,-17 16,-23l40 -25c4,-2 2,-1 5,-4 9,-5 14,-8 22,-13l32 36c9,10 24,26 27,37 -6,4 -12,7 -19,11l-50 29c-9,4 -12,6 -19,11 -17,9 -41,26 -54,26l0 -85zm3043 -3110l1881 0 0 477 -1881 0 0 -477zm-10974 -1252c146,71 571,509 669,651l427 -600 11 -9 -700 -611 -407 569zm17812 2907c-414,-189 -1002,-728 -1181,-1150 -371,-873 -350,-1389 -350,-2279l-724 0c0,794 22,1564 -355,2314 -110,217 -319,500 -502,661 -108,95 -205,176 -323,260 -108,77 -255,142 -355,219l422 689c227,-68 790,-656 945,-860 226,-299 444,-710 527,-1076 29,46 193,474 225,557 60,155 223,405 323,543 118,162 270,326 417,463 59,56 452,373 501,384l430 -725zm-16013 -1088l486 0 0 186 -486 0 0 -186zm486 -626l0 193 -486 0 0 -186 486 -7zm-657 -1767l-90 0c-186,497 -358,861 -741,1243 -95,95 -124,70 -54,177 37,56 102,145 123,205l52 0c-311,0 -622,0 -933,0l0 679 329 -8c0,93 -6,862 3,885l-354 225 0 90 215 708 546 -537c67,45 143,148 225,209 297,223 624,216 985,216 532,0 1202,36 1717,-6l149 -694c-737,0 -1549,32 -2276,-8 -368,-21 -560,-161 -588,-539 -25,-345 -3,-783 0,-1140 21,33 100,175 125,186l112 -117 -1 1453 2494 8 0 -664 -792 8 0 -187 634 -4 1 -435 -635 7 0 -194 635 1 0 -448 -635 0 0 -179 777 0 -5 -648 -711 0 186 -381 -638 -90 -189 468 -283 4 147 -393 -530 -100zm657 1140l0 194 -486 0 0 -186 486 -8zm3516 813c11,16 87,258 108,324 27,87 33,53 272,-9 121,-31 242,-96 350,-124 32,-8 295,117 330,137 -105,60 -656,55 -813,83 -155,27 -836,-3 -912,29l0 -187 665 0 0 -253zm2837 -221c36,162 -216,1639 -518,1297 -147,-165 -78,-617 2,-808 71,-172 321,-491 516,-489zm-1710 -256c-43,65 -236,144 -301,170 -63,26 -249,-106 -289,-170l590 0zm-1822 -179l202 0 0 134 -202 0 0 -134zm-672 0l202 0 0 134 -202 0 0 -134zm0 -350l165 -1 34 5 3 33 0 97 -164 0c-27,0 -16,-3 -38,7l0 -141zm1828 118l10 -5 -10 5zm-1156 -118l209 0c-15,33 -7,95 -7,134 -46,0 -166,-9 -202,7l0 -141zm1401 -353c14,-5 145,-9 166,-8 51,2 31,82 31,130 1,105 -28,176 92,228 83,37 547,35 654,24 191,-19 212,-256 226,-408 30,-329 -6,-206 -295,-291l-21 205c-21,7 -105,9 -123,-1 -1,-42 3,-324 -11,-339l-1233 6c-8,20 -21,278 -50,369 -48,150 -109,132 -180,222l297 334 -192 8 5 432 304 7c-41,19 -250,104 -265,129l158 173 -926 28 -8 -105c65,0 597,9 612,-6l0 -1069c-15,-15 -539,-6 -603,-6l-9 -97 687 0 0 -380 -678 0 -9 -127 -515 0 4 127 -691 0 5 380 682 0 1 97 -613 0 0 1087 612 1 -1 90 -716 0 0 387 717 0 0 179 -436 1 70 332 1172 -12 0 97 -1254 0 5 335 1249 0 0 112 -1530 0 0 380 1530 0c0,170 -86,119 -261,119 -142,0 -284,0 -428,1l107 424c299,0 595,-9 896,-7 362,2 358,-268 357,-544l1539 0 0 -388 -1553 0 5 -105 1279 1 0 -328 -1278 -1c-13,-14 -1,-107 0,-132l1080 -63 -139 -284 478 155 46 -115c3,207 -32,323 3,555 23,151 79,323 158,454 188,310 528,400 826,178 482,-360 553,-1326 618,-1873 526,52 652,605 558,1042 -149,693 -816,640 -925,688l186 543c296,-25 717,-162 921,-386 169,-185 295,-406 348,-652 12,-56 32,-209 47,-244l0 1506 671 0 0 -141 2912 0 -8 -716 -2904 7 0 -372 2561 0 0 -1795 -2561 -9 0 -328 2830 0 -8 -701 -3493 0 0 2184c-93,-311 -59,-480 -308,-758 -207,-230 -466,-364 -775,-397 -598,-65 -1279,179 -1515,775l-559 -91c61,-56 242,-183 327,-252 71,-57 38,-428 38,-537l-1232 0c57,-68 112,-126 150,-209 21,-46 77,-246 86,-255zm4117 4112c3,32 26,3 41,0 39,26 30,56 69,25 15,-12 54,-43 64,-57 -7,-5 -4,-1 -6,-9 -20,0 -19,12 -30,12 -12,0 -35,-33 -52,-33 -11,0 -70,58 -86,62zm124 200c0,-8 2,-6 7,-10l13 -11c1,0 1,0 2,-1 24,-19 49,-27 34,-46 -25,3 -26,34 -73,-1 -26,-20 -18,-31 -59,-3 -8,6 -14,9 -22,15 -12,10 -39,21 -43,37 11,15 25,1 38,-6 6,3 23,15 26,20 9,15 -2,191 5,228 3,18 5,21 15,32 19,21 15,20 39,20 16,0 61,-40 76,-51 2,-1 12,-7 13,-8 8,-7 5,1 5,-15 -27,-6 -23,12 -38,12 -18,0 -38,-34 -38,-44l0 -168zm-3352 12l0 171c0,5 0,6 -9,14l-32 24c-1,0 -1,1 -2,1l-7 11c6,4 4,0 6,8 25,0 23,-32 88,9 37,24 39,37 89,7l92 -58c9,-6 12,-7 13,-19l-14 -3c-14,0 4,-3 -16,8 -6,4 -8,5 -14,9 -38,24 -29,24 -77,1 -12,-6 -28,-15 -41,-18l0 -186c0,-19 -1,-20 15,-20 9,0 7,3 12,9 4,5 5,8 10,13 25,25 29,19 72,19 20,0 100,-47 36,-56 -14,-2 -17,-2 -27,-9 -8,-4 -13,-9 -20,-15 -37,-38 -22,-6 -118,30 -5,2 -8,4 -13,5 -6,1 -9,1 -15,3 -24,6 -59,-2 -46,21 5,9 18,9 18,21zm3049 -50c7,-11 4,-3 9,-17 3,-7 5,-12 8,-19 3,-7 5,-10 8,-18 4,-10 4,-5 -2,-17 -33,9 13,15 -76,15l0 -156c0,-16 -18,-4 -29,4 -14,10 -45,26 -45,34l0 124c-51,0 -44,-6 -58,30 -3,8 -13,25 -10,32 9,14 9,1 30,-6 16,-6 22,-5 38,-3 0,55 0,110 0,165 0,37 7,52 -16,66 -10,6 -16,10 -25,16 -7,5 -18,12 -27,15 1,39 27,-5 61,10 28,12 38,33 55,36 13,2 23,-8 31,-14l54 -41c11,-9 14,-9 17,-18 0,-3 0,-6 0,-9 -12,0 -12,0 -26,9 -7,5 -8,5 -12,12 -10,-5 -41,-23 -41,-35l0 -206c0,-15 28,-9 56,-9zm738 0c2,-8 7,-18 10,-26 2,-4 11,-22 11,-24 0,-34 -10,3 -53,3 -39,0 -33,3 -32,-38l0 -133c-12,1 -59,33 -71,41 0,40 5,95 -3,130 -54,0 -41,-2 -57,34 -12,27 -12,17 -8,33 19,-1 10,-14 39,-14 25,0 23,-2 23,20l0 203c-5,2 -65,35 -65,45 0,22 28,1 28,1 38,-18 71,37 96,37 21,0 64,-43 81,-54 38,-26 19,-39 3,-28 -27,19 -21,20 -51,2 -10,-7 -12,-8 -13,-23l1 -206c18,-5 39,-3 61,-3zm-4540 -3c7,-12 10,-20 16,-34 8,-16 12,-19 4,-34 -37,9 9,15 -76,15 0,-190 14,-178 -48,-139 -13,8 -29,12 -29,30l0 115 -41 0c-2,9 -3,5 -7,13 0,1 -1,2 -1,2l-7 17c-5,11 -21,39 1,34 13,-3 2,-3 14,-8 10,-4 28,-2 41,-2l0 223c-5,2 -65,35 -65,45 0,9 9,12 16,9 10,-4 25,-26 70,8 29,21 29,28 65,1l49 -37c5,-3 8,-5 12,-8 18,-14 7,-21 0,-21 -26,0 -14,39 -60,2 -9,-7 -10,-7 -10,-13l0 -209c0,-15 27,-9 56,-9zm-365 -3c11,0 29,-51 29,-65 -19,-1 -9,-3 -25,7 -9,6 -17,8 -31,8 -34,0 -26,7 -26,-65 0,-24 -1,-49 0,-73 0,-14 3,-29 -8,-29 -7,1 -58,38 -66,40l0 130c-16,4 -27,3 -47,3 -6,25 -36,65 -15,65 21,0 -11,-15 56,-15l0 224 -35 23c-1,0 -2,1 -2,1l-4 2c0,1 -1,1 -1,2l-25 16c4,6 5,10 11,14 7,-1 9,-2 15,-5 16,-7 24,-9 43,1 46,26 37,55 103,0 0,-1 1,-1 1,-2l33 -26c15,-11 16,-11 23,-24 -12,-8 -10,-7 -23,1 -23,15 -18,13 -32,5 -9,-5 -27,-12 -27,-23l0 -215 53 0zm626 50c36,0 79,-24 89,-24 1,0 38,17 38,39l0 138c0,13 -6,16 -14,21l-66 39c-14,2 -50,-17 -65,-39 -23,-34 3,-77 35,-93 4,-2 19,-10 22,-10 16,0 24,35 44,26 6,-12 -5,-18 -14,-27l-37 -37c-1,0 -1,-1 -2,-1l-3 -3c-10,-8 -23,-17 -27,-29zm-32 271l9 0c5,-7 20,-11 39,-23 12,-8 23,-15 36,-23 11,-7 65,-42 75,-43 0,19 5,36 16,49l40 34 69 -48c17,-12 17,-10 19,-20 -13,-20 -17,-1 -32,3l-26 -21c-12,-11 -13,-13 -13,-35 1,-30 1,-61 1,-91 0,-75 -11,-56 45,-96 11,-8 19,-9 22,-22 -9,-5 -4,-7 -15,-1 -30,14 -47,43 -97,-31l-17 0c-2,7 -2,6 -11,13 -24,21 -87,54 -119,55 1,-10 19,-39 -11,-57 -2,-1 -14,-6 -17,-7 -25,-6 -57,18 -50,45 3,13 16,27 25,36l58 58c5,5 6,7 10,13 -20,5 -49,25 -67,36l-32 27c0,0 -1,1 -1,2l-17 23c-1,1 -5,10 -5,11 -11,33 -3,56 19,80l11 10c0,1 1,1 1,2 14,11 29,16 35,21zm-1236 -268l42 -11c8,-3 39,-16 40,-16 19,0 25,19 42,24l0 165c-14,9 -28,17 -41,26l-22 14c-16,10 -28,23 -65,-6 -27,-22 -25,-27 -25,-58 0,-37 59,-64 70,-64 5,12 4,5 16,17 7,7 7,11 20,15 13,-19 4,-18 -36,-58 -9,-9 -14,-14 -22,-23l-9 -9c0,0 -1,-1 -1,-1l-8 -10c-3,-8 1,5 -1,-5zm-35 268l32 0c7,-10 3,-3 14,-10l45 -29c12,-8 52,-33 62,-35 0,16 7,34 15,44 10,11 21,18 29,30l23 0 39 -29c9,-6 13,-9 21,-15 9,-6 14,-7 17,-18l-6 -9c-15,4 -11,8 -26,12 -48,-32 -36,-43 -36,-88 0,-42 0,-83 0,-124l39 -26c0,-1 1,-1 1,-2l28 -19c-2,-5 -3,-10 -6,-15 -26,13 -42,24 -63,13 -16,-8 -21,-16 -31,-30 -6,-8 -6,-5 -9,-15 -17,0 -21,5 -34,16 -20,18 -48,30 -72,40 -1,0 -3,1 -4,1 -1,1 -1,1 -2,1l-38 10c7,-13 23,-33 1,-54 -6,-6 -9,-6 -17,-10 -8,-4 -6,-5 -19,-4 -12,1 -40,11 -41,38l20 42 53 52c8,8 15,12 18,24l-55 28c-28,20 -73,57 -69,98 3,33 26,59 54,73l12 6c6,4 2,1 5,4zm3222 -292c7,-1 15,-3 21,-5 9,-2 12,-3 22,-5 12,-3 5,-5 17,0l63 32c8,4 10,4 13,10 6,10 2,157 2,180 0,13 -13,13 -25,16 -39,10 -20,14 -52,-2l-61 -31 0 -195zm0 292l35 0c19,-17 70,-36 92,-41 31,-8 26,-6 55,-10 18,-2 68,1 53,-22 -6,-9 -18,-9 -20,-25l0 -182c11,-7 20,-14 31,-22 27,-19 20,-13 19,-28 -20,0 -12,1 -23,9 -37,28 -75,-10 -101,-32 -25,-21 -47,14 -136,37l-50 11c-22,5 -36,-1 -55,8 0,7 -1,3 2,9 0,0 5,6 5,7 4,3 8,5 12,9 10,11 5,100 5,119 0,20 6,65 -5,77 -9,10 -38,19 -49,35l12 11c40,-9 21,-32 77,3 9,6 35,18 41,27zm2619 -265l72 -23c15,-7 18,-12 30,-3 8,6 22,18 31,20l0 165c-6,4 -11,8 -17,12 -7,5 -12,6 -19,11 -7,4 -11,8 -17,12 -31,22 -37,25 -63,10 -14,-9 -27,-18 -34,-34l-4 -18c-1,-5 0,-16 2,-24 5,-20 28,-38 45,-46 1,-1 2,-1 2,-1 1,-1 2,-1 2,-1 8,-4 -1,-1 6,-3 7,-3 6,-3 11,-1 10,5 22,23 33,30l12 -9c-3,-11 -15,-20 -23,-28l-54 -54c-1,-1 -1,-1 -2,-2l-13 -13zm-23 265l38 0 129 -80c0,31 18,57 40,73 2,1 3,1 5,3 5,3 2,0 6,4l5 0c1,-1 2,-2 2,-1l84 -64 -10 -11c-26,12 -9,20 -42,-5 -22,-17 -16,-20 -16,-55 0,-47 0,-94 0,-141 8,-2 61,-40 68,-50l-12 -9c-6,4 -7,4 -13,8 -17,12 -30,18 -49,8 -43,-24 -36,-66 -71,-31 -10,9 -9,9 -22,17 -9,5 -16,8 -25,13 -10,5 -60,26 -68,26 -21,-1 8,-11 2,-36 -8,-31 -54,-39 -77,-16 -41,43 53,92 82,135 -6,3 -9,5 -15,9 -7,4 -10,5 -18,9 -67,30 -139,102 -60,169l31 21c7,4 2,1 6,4zm588 0l15 0 68 -50c7,-6 15,-11 17,-21 -13,-9 -15,-8 -35,6 -9,-6 -22,-12 -31,-19 -6,-6 -6,-6 -7,-16 -1,-7 0,-17 0,-24 0,-113 -17,-85 58,-142 3,-3 4,-3 6,-5 15,-11 26,-21 42,-29 3,9 -2,1 12,14 12,10 20,16 23,24l0 118c0,96 -10,94 47,144l24 0c3,-3 0,-1 5,-4 14,-10 65,-43 71,-52 -3,-11 -3,-4 -6,-15l-14 0c-3,7 -5,7 -12,12 -52,-14 -38,-100 -38,-156 0,-59 -7,-48 26,-71 33,-23 50,-28 32,-44 -12,3 -30,33 -59,18 -15,-7 -28,-27 -39,-37 -4,-5 -1,-2 -5,-4 -18,-6 -71,40 -85,50l-58 41c-7,6 -12,9 -21,12 0,-18 -1,-24 -3,-39 -5,-35 -5,-29 -29,-53 -8,-9 -10,-15 -24,-15 -17,0 -48,29 -76,46 -9,5 -16,8 -18,19 5,8 5,11 17,12 3,-7 8,-10 15,-15 15,4 19,12 29,22 15,14 12,10 12,37 0,34 0,67 0,100 0,54 7,51 -27,73 -20,14 -42,25 -40,35 3,11 5,5 14,10 8,-5 16,-13 24,-17 27,-14 56,14 70,35zm-2634 0l30 0 24 -20c1,0 2,-1 2,-1l7 -5c0,-1 1,-1 1,-2 1,0 2,0 2,-1l40 -27c-2,-29 -21,-7 -32,-7 -9,1 -29,-12 -35,-17 -8,-8 -6,-9 -6,-23l0 -80c0,-50 0,-27 60,-78 0,0 1,-1 2,-1l41 -33c22,15 26,27 38,30 0,25 0,51 0,76 0,29 3,49 3,74 0,63 -9,71 27,105 5,5 4,4 8,10l42 0 10 -7c4,-3 7,-5 11,-8 38,-28 52,-27 40,-50 -20,2 -14,18 -35,6 -11,-6 -19,-17 -23,-30 -9,-23 -6,-116 -7,-153 0,-29 7,-20 33,-41l3 -2c27,-20 41,-17 26,-39 -12,1 -17,10 -28,16 -28,17 -62,-20 -75,-42 -30,0 -15,-2 -49,20l-50 36c-1,0 -1,1 -2,1 0,0 -1,1 -2,1l-67 47c0,-27 0,-54 -11,-71 -40,-60 -59,-36 -90,-15l-17 13c-9,6 -27,19 -32,26 6,26 18,8 29,0 10,3 28,18 36,27 2,2 2,0 4,7l2 164c-1,21 -13,24 -47,47 -27,18 -21,12 -21,26 8,2 4,1 11,6 17,-4 25,-28 54,-21 11,3 38,28 43,36zm-1477 0l12 0c4,-4 1,-1 7,-5 3,-2 4,-3 7,-5 6,-3 7,-5 12,-8l58 -42c10,-9 5,-5 4,-17 -32,0 -14,22 -53,-5 -25,-16 -17,-19 -17,-57 10,-7 19,-11 31,-18 12,-6 21,-13 36,-14 3,9 3,5 9,15 0,1 0,2 1,2 16,29 20,43 33,73l19 45c20,36 15,23 30,36l11 0 42 -29c15,-10 35,-21 38,-33 -9,-6 -10,-7 -21,-1 -23,14 -23,11 -40,-29 -20,-46 -23,-56 -47,-98 -5,-8 -6,-9 -7,-19l88 -50c0,-18 -13,-26 -28,-42 -71,-76 -44,-80 -118,-34 -76,47 -72,52 -72,14 1,-45 -2,-149 3,-183 6,-40 31,-75 34,-84 2,-8 1,-8 -1,-16 -16,1 -17,7 -26,15l-7 6c-1,1 -2,3 -4,4 -4,4 -5,5 -10,9 -24,23 -25,36 -41,37 -1,-12 -16,-37 -30,-41 -8,17 1,41 3,56l0 432c-12,9 -46,31 -53,42 16,24 25,2 44,-3 25,17 25,22 47,41l6 6z"/>
  <rect class="fil1" width="21249" height="21249"/>
 </g>
</svg>
